# xmcd
# 
# Track frame offsets:
#     150
#     8595
#     17562
#     26610
#     42755
#     49725
#     55875
#     70577
#     87952
#     102542
#     116847
#     137462
#     155887
#     165930
#     179577
#     194417
#     213932
#     224620
#     230685
#     244372
#     261027
#     274762
#     288642
#     307127
#     325355
#     343265
# 
# Disc length: 4771
# 
# Revision: 6
# Processed by: cddbd v1.5.2PL0 Copyright (c) Steve Scherf et al.
# Submitted via: BonkEnc v1.0.15
# 
DISCID=8b12a11a
DTITLE=Various Artist - 刑事魂 〜TV刑事ドラマソング・べスト〜
DYEAR=2003
DGENRE=Soundtrack
TTITLE0=『太陽にほえろ！』メイン・テーマ
TTITLE1=『太陽にほえろ！』マカロニ刑事のテーマ
TTITLE2=『太陽にほえろ！』ジーパン刑事のテーマ
TTITLE3=『俺たちの勲章』メインテーマ「ああ青春」
TTITLE4=『大都会・闘いの日々』メイン・テーマ
TTITLE5=『大都会PARTII』メイン・テーマ
TTITLE6=『大都会PARTII』主題歌「ひとり」
TTITLE7=『大都会PARTIII』主題歌「日暮れ坂」
TTITLE8=『西部警察』メイン・テーマ
TTITLE9=『西部警察PARTII』メイン・テーマ「ワンダフル・ガイズ」
TTITLE10=『あぶない刑事』主題歌「冷たい太陽」
TTITLE11=『あいつがトラブル』メイン・テーマ「SHOUT」
TTITLE12=『刑事くん』主題歌「コンクリート・ジャングル」
TTITLE13=『非情のライセンス』メイン・テーマ
TTITLE14=『非情のライセンス』挿入歌「非情の街」
TTITLE15=『非情のライセンス』主題歌「昭和ブルース」
TTITLE16=『Gメン'75』メイン・テーマ
TTITLE17=『特捜最前線』メイン・テーマ
TTITLE18=『特捜最前線』主題歌「私だけの十字架」
TTITLE19=『夜明けの刑事』主題歌「夜明けの街」
TTITLE20=『二人の事件簿』主題歌「街のともしび」
TTITLE21=『新・二人の事件簿 暁に駆ける』主題歌「暁に駆ける」
TTITLE22=『噂の刑事トミーとマツ』主題歌「ワンダフル・モーメント」
TTITLE23=『熱中時代・刑事編』主題歌「カリフォルニア・コネクション」
TTITLE24=『大空港』メイン・テーマ「大空港のテーマ」
TTITLE25=『大捜査線』主題歌「君は人のために死ねるか」
EXTD=
EXTT0=
EXTT1=
EXTT2=
EXTT3=
EXTT4=
EXTT5=
EXTT6=
EXTT7=
EXTT8=
EXTT9=
EXTT10=
EXTT11=
EXTT12=
EXTT13=
EXTT14=
EXTT15=
EXTT16=
EXTT17=
EXTT18=
EXTT19=
EXTT20=
EXTT21=
EXTT22=
EXTT23=
EXTT24=
EXTT25=
PLAYORDER=
